<?xml version="1.0" encoding="UTF-8" standalone="no"?>
<svg
   height="44"
   width="44"
   version="1.1"
   id="svg2"
   sodipodi:docname="rust.svg"
   inkscape:version="1.3 (0e150ed6c4, 2023-07-21)"
   xmlns:inkscape="http://www.inkscape.org/namespaces/inkscape"
   xmlns:sodipodi="http://sodipodi.sourceforge.net/DTD/sodipodi-0.dtd"
   xmlns="http://www.w3.org/2000/svg"
   xmlns:svg="http://www.w3.org/2000/svg">
  <defs
     id="defs2" />
  <sodipodi:namedview
     id="namedview2"
     pagecolor="#ffffff"
     bordercolor="#000000"
     borderopacity="0.25"
     inkscape:showpageshadow="2"
     inkscape:pageopacity="0.0"
     inkscape:pagecheckerboard="0"
     inkscape:deskcolor="#d1d1d1"
     inkscape:zoom="8.3923662"
     inkscape:cx="2.3831181"
     inkscape:cy="-2.3235402"
     inkscape:window-width="1920"
     inkscape:window-height="1080"
     inkscape:window-x="0"
     inkscape:window-y="0"
     inkscape:window-maximized="1"
     inkscape:current-layer="svg2" />
  <path
     d="m 21.999999,3.90617 c -9.975147,0 -18.09383,8.122515 -18.09383,18.093838 0,9.971325 8.12251,18.093838 18.09383,18.093838 9.971318,0 18.093829,-8.122513 18.093829,-18.093838 0,-9.971323 -8.122511,-18.093838 -18.093829,-18.093838 z m -0.0268,1.607661 a 1.186606,1.1904346 0 0 1 1.155985,1.1904342 1.190434,1.1904347 0 0 1 -2.380867,0 1.1904339,1.1904346 0 0 1 1.224882,-1.1904342 z m 2.725366,1.9598144 a 14.648843,14.648852 0 0 1 10.028737,7.1426056 l -1.404789,3.169389 c -0.241149,0.54737 0.0076,1.190435 0.551198,1.435412 l 2.702399,1.19809 a 14.648843,14.648852 0 0 1 0.03061,2.541636 h -1.50431 c -0.149282,0 -0.210528,0.09952 -0.210528,0.244976 v 0.688997 c 0,1.622972 -0.914834,1.978955 -1.718664,2.066993 -0.765553,0.08803 -1.611488,-0.321533 -1.718666,-0.78852 -0.451675,-2.537807 -1.201916,-3.077522 -2.388523,-4.015324 1.473688,-0.933975 3.004794,-2.315797 3.004794,-4.160779 0,-1.994265 -1.366511,-3.249771 -2.296658,-3.866041 -1.309093,-0.861247 -2.755988,-1.033497 -3.14642,-1.033497 H 11.087051 a 14.648843,14.648852 0 0 1 8.195237,-4.6239376 l 1.833497,1.9215374 c 0.413399,0.4325375 1.098568,0.4516765 1.531105,0.034454 z M 7.7798621,16.285158 a 1.1904339,1.1904346 0 0 1 1.1559836,1.190434 1.1904339,1.1904346 0 0 1 -2.3808671,0 1.1904339,1.1904346 0 0 1 1.2248835,-1.190434 z m 28.3828529,0.05359 a 1.1904339,1.1904346 0 0 1 1.155984,1.190435 1.1904339,1.1904346 0 0 1 -2.380867,0 1.1904339,1.1904346 0 0 1 1.224883,-1.190435 z m -26.139783,0.191386 h 2.074648 v 9.355054 H 7.9100074 A 14.648843,14.648852 0 0 1 7.4353651,20.292825 l 2.5646005,-1.140673 c 0.5473704,-0.244976 0.7961754,-0.884214 0.5511984,-1.431584 z m 8.658397,0.09952 h 4.941641 c 0.25646,0 1.802875,0.294738 1.802875,1.45455 0,0.960769 -1.186606,1.305268 -2.162685,1.305268 h -4.585659 z m 0,6.721553 h 3.785656 c 0.3445,0 1.848809,0.09952 2.327279,2.021059 0.149283,0.589476 0.482298,2.511013 0.708136,3.127283 0.225838,0.688997 1.140674,2.066992 2.116753,2.066992 h 6.178006 a 14.648843,14.648852 0 0 1 -1.355026,1.569383 l -2.51484,-0.539714 c -0.585648,-0.126316 -1.16364,0.248804 -1.289955,0.834453 l -0.597132,2.786612 a 14.648843,14.648852 0 0 1 -12.214387,-0.05742 l -0.597131,-2.78661 c -0.126316,-0.585645 -0.70048,-0.960766 -1.286127,-0.83445 l -2.461251,0.528233 a 14.648843,14.648852 0 0 1 -1.270818,-1.500484 h 11.969412 c 0.133971,0 0.225837,-0.02296 0.225837,-0.149283 v -4.233507 c 0,-0.122488 -0.09186,-0.149282 -0.225837,-0.149282 h -3.502403 z m -5.52346,9.695727 a 1.1904339,1.1904346 0 0 1 1.155984,1.190435 1.190434,1.1904347 0 0 1 -2.380867,0 1.1904339,1.1904346 0 0 1 1.224883,-1.190435 z m 17.626844,0.05359 a 1.1904339,1.1904346 0 0 1 1.155983,1.190434 1.1904341,1.1904348 0 0 1 -2.380868,0 1.1904339,1.1904346 0 0 1 1.224885,-1.190434 z"
     id="path1"
     style="stroke-width:0.382776" />
  <path
     d="M 39.083297,22.000008 A 17.0833,17.083309 0 0 1 21.999999,39.083319 17.0833,17.083309 0 0 1 4.9166981,22.000008 17.0833,17.083309 0 0 1 21.999999,4.9166998 17.0833,17.083309 0 0 1 39.083297,22.000008 Z m -0.321531,-1.649766 2.664122,1.649766 -2.664122,1.649767 2.289002,2.13972 -2.932065,1.098567 1.829669,2.545463 -3.096659,0.505266 1.30144,2.855511 -3.134938,-0.111005 0.719621,3.054553 -3.054556,-0.719619 0.111006,3.13494 -2.85551,-1.301438 -0.505264,3.096659 -2.545462,-1.829671 -1.098567,2.932068 -2.13972,-2.289005 -1.649764,2.664125 -1.649766,-2.664125 -2.139719,2.289005 -1.098567,-2.932068 -2.545461,1.829671 -0.505265,-3.096659 -2.85551,1.301438 0.111005,-3.13494 L 8.2621616,35.73785 8.9817802,32.683297 5.8468437,32.794302 7.1482826,29.938791 4.0516244,29.433525 5.8812937,26.888062 2.9492281,25.789495 5.2382306,23.649775 2.5741084,22.000008 5.2382306,20.350242 2.9492281,18.210522 5.8812937,17.111954 4.0516244,14.566491 7.1482826,14.061226 5.8468437,11.205715 8.9817802,11.31672 8.2621616,8.2621655 11.316716,8.9817842 11.205711,5.8468463 l 2.85551,1.3014401 0.505265,-3.0966618 2.545461,1.8296716 1.098567,-2.9320671 2.139719,2.2890025 1.649766,-2.6641232 1.649764,2.6641232 2.13972,-2.2890025 1.098567,2.9320671 2.545462,-1.8296716 0.505264,3.0966618 2.85551,-1.3014401 -0.111006,3.1349379 3.054556,-0.7196187 -0.719621,3.0545545 3.134938,-0.111005 -1.30144,2.855511 3.096659,0.505265 -1.829669,2.545463 2.932065,1.098568 z"
     fill-rule="evenodd"
     stroke="#000000"
     stroke-linecap="round"
     stroke-linejoin="round"
     stroke-width="1.14832"
     id="path2" />
</svg>
